<?xml version="1.0"?>
<svg width="111" height="30" xmlns="http://www.w3.org/2000/svg" xmlns:svg="http://www.w3.org/2000/svg" class="default-ltr-cache-1d568uk ev1dnif2" version="1.1">
 <g class="layer">
  <title>Layer 1</title>
  <g id="svg_1">
   <path d="m105.06,14.8l5.94,15.2c-1.75,-0.24 -3.5,-0.54 -5.28,-0.81l-3.35,-8.4l-3.43,7.7c-1.69,-0.27 -3.35,-0.37 -5.03,-0.58l6.03,-13.29l-5.47,-13.62l5.06,0l3.06,7.61l3.28,-7.61l5.13,0l-5.94,13.8zm-14.59,-13.8l-4.6,0l0,26.34c1.5,0.09 3.07,0.15 4.6,0.33l0,-26.67zm-8.56,26.04c-4.19,-0.27 -8.38,-0.51 -12.66,-0.61l0,-25.43l4.69,0l0,21.14c2.68,0.07 5.37,0.28 7.97,0.4l0,4.5zm-17.66,-15.74l0,4.52l-6.41,0l0,10.3l-4.62,0l0,-25.13l13.12,0l0,4.53l-8.5,0l0,5.77l6.41,0l0,0.01zm-18.91,-5.77l0,20.84c-1.56,0 -3.15,0 -4.68,0.06l0,-20.9l-4.85,0l0,-4.53l14.41,0l0,4.53l-4.88,0zm-14.59,10.54c-2.06,0 -4.5,0 -6.25,0.1l0,6.74c2.75,-0.18 5.5,-0.4 8.28,-0.48l0,4.35l-12.97,1l0,-26.77l12.97,0l0,4.53l-8.28,0l0,6.1c1.81,0 4.59,-0.09 6.25,-0.09l0,4.52zm-25.97,-2.53l0,15.82c-1.69,0.18 -3.19,0.4 -4.78,0.64l0,-29l4.47,0l6.09,16.46l0,-16.46l4.69,0l0,27.12c-1.66,0.27 -3.34,0.37 -5.13,0.61l-5.34,-15.2l0,0.01z" fill="#f20909" id="svg_2"/>
  </g>
 </g>
</svg>